<?xml version="1.0" encoding="UTF-8" standalone="no"?>
<svg width="586px" height="96px" viewBox="0 0 586 96" version="1.1" xmlns="http://www.w3.org/2000/svg" xmlns:xlink="http://www.w3.org/1999/xlink" xmlns:sketch="http://www.bohemiancoding.com/sketch/ns">
    <!-- Generator: Sketch 3.1.1 (8761) - http://www.bohemiancoding.com/sketch -->
    <title>Fill 1</title>
    <desc>Created with Sketch.</desc>
    <defs></defs>
    <g id="Page-1" stroke="none" stroke-width="1" fill="none" fill-rule="evenodd" sketch:type="MSPage">
        <g id="website-md" sketch:type="MSArtboardGroup" transform="translate(-219.000000, -120.000000)" fill="#FFFFFF">
            <g id="Masthead" sketch:type="MSLayerGroup">
                <path d="M756.967213,170.388 C751.669197,170.388 747.360656,166.0824 747.360656,160.788 L747.360656,146.412 L747.360656,146.4 L747.360656,146.388 C747.360656,135.8016 738.741172,127.188 728.147541,127.188 C720.186107,127.188 713.341434,132.0528 710.430648,138.9624 C704.260836,131.7696 695.122598,127.188 684.918033,127.188 L656.098361,127.188 C653.446951,127.188 651.295082,129.3384 651.295082,131.988 C651.295082,134.64 653.446951,136.788 656.098361,136.788 L684.918033,136.788 C698.160672,136.788 708.934426,147.5544 708.934426,160.788 L708.934426,182.388 C708.934426,185.04 711.086295,187.188 713.737705,187.188 C716.389115,187.188 718.540984,185.04 718.540984,182.388 L718.540984,146.388 C718.540984,141.096 722.849525,136.788 728.147541,136.788 C733.445557,136.788 737.754098,141.096 737.754098,146.388 L737.754098,146.4 L737.754098,146.412 L737.754098,160.788 C737.754098,171.3744 746.373582,179.988 756.967213,179.988 C759.618623,179.988 761.770492,177.84 761.770492,175.188 C761.770492,172.5384 759.618623,170.388 756.967213,170.388 Z M252.622951,155.988 C239.380311,155.988 228.606557,145.2216 228.606557,131.988 C228.606557,129.3384 226.454689,127.188 223.803279,127.188 C221.151869,127.188 219,129.3384 219,131.988 C219,150.516 234.082295,165.588 252.622951,165.588 C257.920967,165.588 262.229508,169.896 262.229508,175.188 C262.229508,180.4824 257.920967,184.788 252.622951,184.788 C249.971541,184.788 247.819672,186.9384 247.819672,189.588 C247.819672,192.24 249.971541,194.388 252.622951,194.388 C263.216582,194.388 271.836066,185.7744 271.836066,175.188 C271.836066,164.6016 263.216582,155.988 252.622951,155.988 Z M396.721311,155.988 C394.0675,155.988 391.918033,158.1384 391.918033,160.788 C391.918033,177.9936 377.911672,191.988 360.696721,191.988 C345.119689,191.988 332.206074,180.516 329.883689,165.588 L339.081967,165.588 C357.622623,165.588 372.704918,150.516 372.704918,131.988 C372.704918,129.3384 370.555451,127.188 367.901639,127.188 C365.247828,127.188 363.098361,129.3384 363.098361,131.988 C363.098361,145.2216 352.324607,155.988 339.081967,155.988 L324.672131,155.988 C322.020721,155.988 319.868852,158.1384 319.868852,160.788 C319.868852,183.2856 338.183754,201.588 360.696721,201.588 C383.209689,201.588 401.52459,183.2856 401.52459,160.788 C401.52459,158.1384 399.375123,155.988 396.721311,155.988 Z M598.459016,127.188 L576.844262,127.188 C574.190451,127.188 572.040984,129.3384 572.040984,131.988 C572.040984,131.9928 572.043385,131.9952 572.043385,132 C572.043385,132.0048 572.040984,132.0072 572.040984,132.012 L572.040984,155.988 L562.434426,155.988 C553.1665,155.988 545.622951,148.452 545.622951,139.188 C545.622951,136.5384 543.473484,134.388 540.819672,134.388 C538.165861,134.388 536.016393,136.5384 536.016393,139.188 C536.016393,153.7464 547.868484,165.588 562.434426,165.588 L572.040984,165.588 L572.040984,167.988 C572.040984,177.252 564.497434,184.788 555.229508,184.788 C552.575697,184.788 550.42623,186.9384 550.42623,189.588 C550.42623,192.24 552.575697,194.388 555.229508,194.388 C569.795451,194.388 581.647541,182.5464 581.647541,167.988 L581.647541,136.788 L598.459016,136.788 C611.701656,136.788 622.47541,147.5544 622.47541,160.788 C622.47541,174.0216 611.701656,184.788 598.459016,184.788 C595.805205,184.788 593.655738,186.9384 593.655738,189.588 C593.655738,192.24 595.805205,194.388 598.459016,194.388 C616.999672,194.388 632.081967,179.316 632.081967,160.788 C632.081967,142.26 616.999672,127.188 598.459016,127.188 Z M526.409836,184.788 C521.11182,184.788 516.803279,180.4824 516.803279,175.188 L516.803279,153.588 C516.803279,150.9384 514.653811,148.788 512,148.788 C509.346189,148.788 507.196721,150.9384 507.196721,153.588 L507.196721,175.188 C507.196721,185.7744 515.816205,194.388 526.409836,194.388 C529.063648,194.388 531.213115,192.24 531.213115,189.588 C531.213115,186.9384 529.063648,184.788 526.409836,184.788 Z M339.081967,136.788 C341.733377,136.788 343.885246,134.64 343.885246,131.988 C343.885246,129.3384 341.733377,127.188 339.081967,127.188 L252.622951,127.188 C249.971541,127.188 247.819672,129.3384 247.819672,131.988 C247.819672,134.64 249.971541,136.788 252.622951,136.788 L291.04918,136.788 L291.04918,189.588 C291.04918,192.24 293.201049,194.388 295.852459,194.388 C298.503869,194.388 300.655738,192.24 300.655738,189.588 L300.655738,136.788 L339.081967,136.788 Z M393.335,128.5872 C392.422377,129.4752 391.918033,130.7232 391.918033,131.9952 C391.918033,133.2672 392.422377,134.4912 393.335,135.3792 C394.223607,136.2672 395.472459,136.7952 396.721311,136.7952 C397.970164,136.7952 399.219016,136.2672 400.107623,135.3792 C401.020246,134.4912 401.52459,133.2432 401.52459,131.9952 C401.52459,130.7232 401.020246,129.4992 400.107623,128.5872 C398.306393,126.8112 395.112213,126.8112 393.335,128.5872 Z M468.770492,187.2 C471.424303,187.2 473.57377,185.0496 473.57377,182.4 L473.57377,172.8 L483.180328,172.8 C485.834139,172.8 487.983607,170.6496 487.983607,168 C487.983607,165.348 485.834139,163.1976 483.180328,163.1976 L473.57377,163.1976 L473.57377,153.6 C473.57377,150.948 471.424303,148.7976 468.770492,148.7976 C466.11668,148.7976 463.967213,150.948 463.967213,153.6 L463.967213,163.1976 L454.360656,163.1976 C451.706844,163.1976 449.557377,165.348 449.557377,168 C449.557377,170.6496 451.706844,172.8 454.360656,172.8 L463.967213,172.8 L463.967213,182.4 C463.967213,185.0496 466.11668,187.2 468.770492,187.2 Z M684.918033,155.988 L656.098361,155.988 C653.446951,155.988 651.295082,158.1384 651.295082,160.788 C651.295082,163.44 653.446951,165.588 656.098361,165.588 L684.918033,165.588 C687.569443,165.588 689.721311,163.44 689.721311,160.788 C689.721311,158.1384 687.569443,155.988 684.918033,155.988 Z M684.918033,184.788 L656.098361,184.788 C653.446951,184.788 651.295082,186.9384 651.295082,189.588 C651.295082,192.24 653.446951,194.388 656.098361,194.388 L684.918033,194.388 C687.569443,194.388 689.721311,192.24 689.721311,189.588 C689.721311,186.9384 687.569443,184.788 684.918033,184.788 Z M494.516066,133.0104 C495.844172,130.716 495.056434,127.7784 492.760467,126.4512 C485.45468,122.2296 477.152213,120 468.756082,120 C460.359951,120 452.059885,122.2296 444.749295,126.4512 C437.469926,130.6584 431.400984,136.7232 427.193311,143.9928 C427.19091,143.9976 427.186107,144.0024 427.183705,144.0072 C422.95682,151.3104 420.723295,159.6048 420.723295,168 C420.723295,176.3928 422.95682,184.6872 427.183705,191.9904 C427.183705,191.9928 427.188508,191.9952 427.19091,192 C431.398582,199.272 437.469926,205.3392 444.749295,209.544 C452.059885,213.7656 460.362352,216 468.756082,216 C477.152213,216 485.452279,213.7656 492.760467,209.544 C495.056434,208.2168 495.844172,205.2816 494.516066,202.9872 C493.185557,200.6904 490.250754,199.908 487.952385,201.2328 C482.104393,204.612 475.466262,206.4 468.756082,206.4 C462.045902,206.4 455.40777,204.612 449.557377,201.2328 C443.731,197.868 438.870082,193.0104 435.502984,187.1904 C435.500582,187.188 435.500582,187.1856 435.49818,187.1832 C432.116672,181.3416 430.329852,174.7056 430.329852,168 C430.329852,161.292 432.116672,154.656 435.49818,148.8144 C435.500582,148.812 435.500582,148.8096 435.502984,148.8072 C438.870082,142.9872 443.731,138.1296 449.557377,134.7624 C455.405369,131.3856 462.045902,129.5976 468.756082,129.5976 C475.466262,129.5976 482.106795,131.3856 487.952385,134.7624 C488.711303,135.1992 489.535066,135.408 490.351623,135.408 C492.011156,135.408 493.625057,134.5488 494.516066,133.0104 Z M785.786885,127.188 C775.193254,127.188 766.57377,135.8016 766.57377,146.388 C766.57377,156.9744 775.193254,165.588 785.786885,165.588 C796.380516,165.588 805,156.9744 805,146.388 C805,135.8016 796.380516,127.188 785.786885,127.188 L785.786885,127.188 Z M785.786885,155.988 C780.488869,155.988 776.180328,151.6824 776.180328,146.388 C776.180328,141.096 780.488869,136.788 785.786885,136.788 C791.084902,136.788 795.393443,141.096 795.393443,146.388 C795.393443,151.6824 791.084902,155.988 785.786885,155.988 L785.786885,155.988 Z" id="Fill-1" sketch:type="MSShapeGroup"></path>
            </g>
        </g>
    </g>
</svg>