<?xml version="1.0" encoding="UTF-8" standalone="no"?>
<svg width="80px" height="79px" viewBox="0 0 80 79" version="1.1" xmlns="http://www.w3.org/2000/svg" xmlns:xlink="http://www.w3.org/1999/xlink" xmlns:sketch="http://www.bohemiancoding.com/sketch/ns">
    <!-- Generator: Sketch 3.1.1 (8761) - http://www.bohemiancoding.com/sketch -->
    <title>Imported Layers</title>
    <desc>Created with Sketch.</desc>
    <defs></defs>
    <g id="Page-1" stroke="none" stroke-width="1" fill="none" fill-rule="evenodd" sketch:type="MSPage">
        <g id="website-md" sketch:type="MSArtboardGroup" transform="translate(-248.000000, -580.000000)" fill="#FFFFFF">
            <g id="Credit" sketch:type="MSLayerGroup" transform="translate(0.000000, 544.000000)">
                <g id="Bitmap-+-Fill-9-+-Imported-Layers" transform="translate(56.000000, 35.000000)" sketch:type="MSShapeGroup">
                    <path d="M271.1932,32.4355845 C271.192755,32.4307721 271.192311,32.4259597 271.191866,32.4215847 C271.187866,32.3826479 271.174977,32.3476484 271.167866,32.3100241 C271.152754,32.2369628 271.136754,32.163464 271.121198,32.0904026 C271.11942,32.0851527 271.118975,32.0790278 271.117198,32.0737779 C270.169618,27.7211614 268.451797,23.456481 265.915733,19.4704836 C254.20966,1.07040879 229.472148,-4.52993733 210.771233,6.98881222 C192.071206,18.5071243 186.380396,42.8479146 198.086024,61.2484269 C198.090024,61.2545518 198.095358,61.2589267 198.098913,61.2650516 C198.102913,61.2703015 198.104691,61.2768639 198.108247,61.2821138 C201.37144,66.1601592 205.539101,68.8332406 209.761874,68.8332406 C210.341888,68.8332406 210.923681,68.7829289 211.503251,68.6805556 C215.322903,68.0081291 218.377202,65.0883017 219.283892,61.241427 C220.44481,56.3183198 217.924746,51.0592181 212.543277,47.1742815 C202.559915,39.9665866 205.909332,31.2171669 207.812491,27.7898478 C208.861851,25.9007536 211.427694,23.611791 214.117539,23.089862 C215.483796,22.8238663 216.659825,23.0780497 217.616738,23.8414747 C218.919438,24.8809578 218.937216,26.2879348 218.722544,27.2849811 C218.296756,29.2633238 216.422931,31.6489723 213.665528,32.3822104 C213.599304,32.3997101 213.539302,32.4285846 213.477079,32.4526467 C213.434855,32.4692715 213.39041,32.4810838 213.34952,32.5003335 C213.273073,32.5375203 213.203738,32.5834571 213.134403,32.6298313 C213.109069,32.6464561 213.081513,32.6595809 213.057068,32.6779556 C212.994844,32.7243298 212.939732,32.7781414 212.884619,32.831953 C212.857507,32.8582026 212.827729,32.8813897 212.802395,32.9089518 C212.757949,32.9583885 212.721504,33.0130751 212.682836,33.0668867 C212.654391,33.1062611 212.622835,33.1430105 212.597945,33.1850098 C212.5655,33.2388214 212.542388,33.297008 212.516165,33.3534445 C212.494832,33.4002563 212.469053,33.4444431 212.451719,33.4934423 C212.421941,33.5774409 212.403274,33.6649395 212.386384,33.7528755 C212.38194,33.7773751 212.372162,33.7992498 212.368606,33.8241869 C212.368162,33.8259368 212.368162,33.8276868 212.367717,33.8294368 C212.367273,33.8338117 212.366828,33.8386241 212.366384,33.842999 C211.93304,36.8730746 213.116181,39.9210874 215.534464,41.9991785 C217.878523,44.0138331 220.97949,44.7413837 223.830228,43.9438342 C227.521432,42.9117886 228.40501,41.3971883 229.54015,39.0111022 C230.04594,37.9484321 230.674401,36.6267661 231.880653,34.9271064 C232.550892,33.9825593 234.426051,33.0187625 236.296765,33.1193859 C237.722578,33.1933221 238.79105,33.8469365 239.472845,35.0631666 C241.240889,38.2161777 240.605762,42.7114168 238.029697,46.1886101 C234.674057,44.7724457 230.021495,45.1924389 226.835637,48.5375093 C224.753807,50.7240986 224.014677,54.3058527 225.039592,57.2484297 C225.65383,59.0119634 227.45832,62.0919131 232.644228,62.9025874 C233.349135,63.0132731 234.042041,63.0657722 234.721169,63.0657722 C244.173408,63.0657722 250.98469,52.8240643 252.931851,44.940443 C253.277193,43.5426533 253.509198,42.1439886 253.653646,40.7680736 C255.670586,44.2400169 258.360432,46.7678507 262.196084,46.7678507 C262.588094,46.7678507 262.992548,46.7411636 263.409003,46.686477 C265.324163,46.4357936 266.941537,45.6154945 268.206458,44.3275155 C267.005983,54.8347815 261.138724,64.7304326 251.34381,70.7634591 C241.795125,76.6446757 230.233501,77.8609058 219.622122,74.0989047 C218.699877,73.77166 217.679407,74.2428399 217.346065,75.1523875 C217.013612,76.0619352 217.49318,77.0646688 218.416759,77.392351 C222.870649,78.9703877 227.475209,79.75 232.052213,79.75 C239.443066,79.7495625 246.758806,77.7165332 253.230525,73.7300982 C267.768224,64.7759318 274.441281,48.0728919 271.1932,32.4355845 L271.1932,32.4355845 Z M262.220233,43.7335876 C257.311966,44.3850824 254.755896,37.757367 252.262961,29.4421082 C252.059966,28.6293915 251.838119,27.8823088 251.603995,27.229052 C251.589088,27.1867643 251.565851,27.1506436 251.547875,27.1105584 C251.523762,27.0563773 251.500963,27.0017557 251.472026,26.9510985 C251.442213,26.8991199 251.408015,26.8519867 251.373379,26.8039726 C251.341373,26.7586014 251.309806,26.7127897 251.273854,26.6709425 C251.233957,26.6251309 251.190552,26.5846052 251.146708,26.543639 C251.108126,26.5075182 251.070421,26.4705165 251.02877,26.4379197 C250.981419,26.400918 250.930999,26.3696427 250.880141,26.3379269 C250.83542,26.3097351 250.791577,26.2811028 250.744226,26.2568755 C250.692491,26.2304457 250.638564,26.2101829 250.584198,26.189039 C250.532901,26.1687761 250.482919,26.1485133 250.430307,26.1335364 C250.375503,26.1176785 250.319822,26.1084281 250.263703,26.0982967 C250.208021,26.0881652 250.153656,26.0771528 250.097098,26.0727478 C250.039663,26.0679024 249.982228,26.0701049 249.924355,26.0709859 C249.867358,26.0718668 249.811239,26.0718668 249.754242,26.0784743 C249.694177,26.0855222 249.634988,26.0996181 249.574923,26.1132735 C249.534149,26.122524 249.492936,26.1247265 249.452161,26.1370604 C249.436378,26.1419058 249.423225,26.1502753 249.40788,26.1555612 C249.391658,26.1608472 249.375435,26.1617282 249.359213,26.1674547 C249.318001,26.1824316 249.282049,26.2057779 249.24259,26.2238383 C249.188224,26.2480656 249.132982,26.2714119 249.082123,26.3009252 C249.031703,26.3295575 248.986106,26.3634758 248.939632,26.396513 C248.89272,26.4304313 248.845369,26.463028 248.802402,26.5004703 C248.758997,26.5387935 248.720854,26.5802002 248.681833,26.6220474 C248.643251,26.6630136 248.604669,26.7030988 248.570471,26.7471485 C248.535835,26.7925197 248.50646,26.8405338 248.476208,26.8889885 C248.446394,26.9361216 248.416142,26.9828143 248.391151,27.0325904 C248.365722,27.0832476 248.346431,27.1352262 248.325825,27.1880858 C248.305218,27.240505 248.284612,27.2924836 248.269267,27.3466647 C248.253483,27.4012863 248.244276,27.4572294 248.234192,27.513613 C248.224108,27.5686751 248.213586,27.6237372 248.208763,27.6801208 C248.203502,27.7387069 248.205694,27.7977335 248.206571,27.85676 C248.207886,27.9127031 248.207886,27.9677652 248.214024,28.0241488 C248.221039,28.0849374 248.235069,28.144845 248.24866,28.205193 C248.257868,28.2465997 248.26006,28.2875659 248.272336,28.3289726 L248.577047,29.3614972 C248.672188,29.6839409 248.769081,30.0125516 248.867291,30.3433647 C249.682339,33.6792472 250.281678,39.0859054 248.938755,44.6366061 C247.247277,51.6259694 240.974604,61.367557 232.885937,60.0742583 C230.403524,59.6778111 228.766851,58.5175424 228.153043,56.7185533 C227.482239,54.7530565 228.174527,52.5624657 229.166264,51.4995468 C231.473303,49.0265976 235.081176,49.0129422 237.099725,50.4181271 C237.113317,50.427818 237.128662,50.4326635 237.142253,50.4419139 C237.201003,50.4806776 237.262384,50.5123934 237.324203,50.5427877 C237.364101,50.56261 237.403121,50.5850754 237.443896,50.6013738 C237.50703,50.6269226 237.571918,50.6445424 237.636807,50.6626028 C237.679335,50.6740557 237.720548,50.6890326 237.763514,50.6974021 C237.83191,50.7110575 237.901182,50.7150219 237.970455,50.7203079 C238.009914,50.7233914 238.048934,50.7308798 238.088832,50.7308798 C238.091901,50.7308798 238.095408,50.7317608 238.098916,50.7317608 C238.130922,50.7317608 238.162489,50.7238319 238.194933,50.7220699 C238.275166,50.7176649 238.354961,50.7128195 238.433879,50.6974021 C238.479477,50.6885921 238.522882,50.6718533 238.567602,50.6595193 C238.634682,50.640578 238.701763,50.6233986 238.766651,50.5965283 C238.812248,50.5775869 238.855214,50.5520381 238.899496,50.5291323 C238.960439,50.4974165 239.020504,50.4661412 239.077939,50.4273775 C239.11959,50.3991857 239.157734,50.3661484 239.197193,50.3339922 C239.251997,50.289502 239.305048,50.2441308 239.355029,50.1925927 C239.369059,50.1776158 239.386158,50.1674844 239.400188,50.152067 C243.684564,45.3955821 244.812654,38.6802078 242.143469,33.8206467 C240.882533,31.5260987 238.744729,30.1861073 236.122894,30.0473508 C233.217393,29.8944984 230.170716,31.2600386 228.704593,33.3691375 C227.342817,35.3289079 226.621594,36.8750518 226.095473,38.0040452 C225.184407,39.9589702 224.967821,40.4232538 222.681827,41.0756296 C221.016216,41.5504852 219.179178,41.0932495 217.765229,39.8532509 C216.544629,38.7824031 215.844012,37.3155486 215.771232,35.7923106 C218.870521,34.482273 221.363018,31.6075906 222.035137,28.422358 C222.612116,25.6829081 221.769007,23.1553373 219.721083,21.4876163 C217.955948,20.0498346 215.762463,19.5401797 213.38089,20.0110709 C210.026871,20.6748996 206.482133,23.3473939 204.76128,26.5106017 C199.928862,35.3914584 202.048251,44.3815584 210.431107,50.5590861 C216.399508,54.9570065 216.130748,59.3857617 215.738349,61.0851985 C215.16137,63.5832561 213.247606,65.4747495 210.862526,65.9029124 C207.579095,66.4971426 204.061101,64.3431131 201.210843,60.0042193 C190.702459,43.1261424 195.818544,20.8066081 212.620208,10.243494 C229.427132,-0.322263183 251.660991,4.81392995 262.182089,21.6933283 C264.484744,25.3882158 266.038115,29.3438774 266.883854,33.3801499 C267.487578,39.3043919 265.708851,43.2679824 262.220233,43.7335876 L262.220233,43.7335876 Z" id="Imported-Layers"></path>
                </g>
            </g>
        </g>
    </g>
</svg>