<?xml version="1.0" encoding="UTF-8" standalone="no"?>
<svg width="399px" height="230px" viewBox="0 0 399 230" version="1.1" xmlns="http://www.w3.org/2000/svg" xmlns:xlink="http://www.w3.org/1999/xlink" xmlns:sketch="http://www.bohemiancoding.com/sketch/ns">
    <!-- Generator: Sketch 3.1.1 (8761) - http://www.bohemiancoding.com/sketch -->
    <title>about</title>
    <desc>Created with Sketch.</desc>
    <defs></defs>
    <g id="Page-1" stroke="none" stroke-width="1" fill="none" fill-rule="evenodd" sketch:type="MSPage">
        <g id="about" sketch:type="MSArtboardGroup" transform="translate(-1.000000, -6.000000)" stroke="#FFFFFF" stroke-width="1.5" stroke-linecap="round" stroke-linejoin="round">
            <g sketch:type="MSLayerGroup" transform="translate(2.000000, 7.000000)" id="Stroke-1">
                <path d="M263.045731,72.0092308 C263.809985,63.0345983 263.236299,52.3388034 263.045731,45.6564103 C262.855164,38.9720342 265.340478,24.8398632 265.147925,21.2111453 C264.957358,17.5824274 265.340478,10.8980513 268.399478,11.4711111 C271.458478,12.0441709 271.075358,15.6728889 271.075358,19.4919658 C271.075358,23.3130256 270.914567,34.0068376 271.091239,44.1275897 C271.265925,54.2483419 270.118552,75.0648889 270.118552,75.0648889 M356.532821,72.3919316 C356.723388,63.9883761 356.913955,51.9223932 356.532821,43.2511453 C356.149701,34.5798974 356.657881,29.2300171 356.532821,24.4571624 C356.342254,17.2017094 356.624134,16.6286496 356.38791,13.5729915 C356.149701,10.5173333 354.712507,7.07897436 356.38791,5.35979487 C358.061328,3.64259829 360.165507,2.11377778 361.694015,5.35979487 C363.224507,8.60779487 363.224507,13.9537094 363.224507,16.6286496 C363.224507,19.3016068 362.841388,36.6797949 363.224507,44.8910085 C363.605642,53.1042051 364.179328,69.1895385 364.179328,69.1895385 M271.109104,17.3920684 C277.383925,20.0650256 293.443179,21.4015043 298.796925,21.4015043 C304.148687,21.4015043 320.017373,21.4015043 330.722881,19.3967863 C341.428388,17.3920684 351.844075,16.2459487 356.38791,13.5729915 M271.109104,49.2831453 C280.633493,52.7215043 288.663119,54.6310427 300.134866,55.0137436 C311.604627,55.3944615 326.292194,54.8412308 334.546134,53.2945641 C343.723134,51.5753846 345.430299,50.6275556 351.179075,47.7563077 C353.85694,46.4198291 355.587925,45.3371624 355.587925,45.3371624 M263.28394,52.9098803 C263.28394,52.9098803 253.295045,61.6961368 247.750731,67.617094 C242.206418,73.5380513 233.60509,82.8953846 230.16297,86.7144615 C226.720851,90.5335385 225.76603,91.8700171 226.913403,92.6334359 C228.060776,93.3988376 228.44191,93.9718974 231.119776,91.1065983 C233.795657,88.2412991 241.442164,81.1762051 245.839104,77.1647863 C250.236045,73.1553504 263.428851,60.552 263.428851,60.552 M363.160985,43.2511453 C363.160985,43.2511453 369.723642,53.8676239 373.356328,58.0694017 C376.989015,62.2691966 382.723896,69.1439316 384.444955,71.4361709 C386.166015,73.7284103 394.00309,82.7030427 395.533582,85.185641 C397.06209,87.6682393 396.67897,89.1970598 395.533582,89.9604786 C394.386209,90.7238974 394.195642,90.9162393 391.710328,88.0509402 C389.225015,85.185641 379.664896,72.1995897 375.841642,68.3805128 C372.018388,64.5614359 364.179328,54.0579829 364.179328,54.0579829 M237.99409,78.1443419 C237.99409,78.1443419 241.632731,89.6749402 242.206418,93.2560684 C242.780104,96.8352137 244.423746,104.473368 244.939866,105.238769 C245.45797,106.002188 246.605343,106.765607 246.605343,106.765607 M236.030851,86.2702906 C236.030851,86.2702906 241.817343,106.192547 242.299716,109.821265 C242.780104,113.449983 244.939866,117.322598 244.939866,117.322598 L269.927985,76.0206496 M240.487343,111.923145 C240.487343,111.923145 246.222224,101.80041 250.619164,94.5429744 C255.016104,87.2875214 263.023896,75.8283077 263.035806,73.9187692 C263.045731,72.0092308 263.809985,71.8644786 266.104731,73.0839658 C268.399478,74.3014701 287.134612,80.4127863 301.282239,80.9858462 C315.429866,81.5569231 325.561687,81.1762051 340.473567,77.3571282 C355.385448,73.5380513 363.536164,70.4784274 367.428896,66.8497094 M387.436463,82.6514872 C387.436463,82.6514872 387.311403,87.9577436 385.973463,93.2560684 C384.635522,98.5543932 384.444955,101.036991 384.635522,102.183111 M391.710328,88.0509402 C390.753522,92.8257778 389.415582,97.9813333 389.225015,101.22735 C389.032463,104.473368 387.436463,105.429128 387.436463,105.429128 M366.186239,67.870906 C366.186239,67.870906 366.869104,71.2616752 368.959388,73.9187692 C373.165761,79.2666667 377.562701,86.3515897 380.621701,90.4482735 C383.680701,94.5429744 391.069149,103.709949 389.572403,106.765607 C388.077642,109.821265 386.005224,111.923145 386.005224,111.923145 M358.825582,72.3919316 C364.562448,78.8839658 368.044269,85.9589744 370.680448,89.5777778 C375.267955,95.8814359 379.091209,100.846632 381.576522,104.283009 C384.061836,107.721368 386.166015,112.494222 388.268209,113.449983 C388.268209,113.449983 375.841642,120.515077 364.179328,123.570735 C352.517015,126.626393 336.457761,129.108991 316.384687,129.491692 C296.311612,129.874393 277.193358,128.345573 264.574239,124.907214 C251.957104,121.470838 243.927478,117.322598 243.927478,117.322598 M250.045478,121.661197 C255.97291,129.682051 270.501672,146.106462 276.810239,152.598496 C283.118806,159.092513 297.649552,174.178462 303.958119,180.289778 C310.266687,186.401094 320.400493,196.521846 326.899627,202.060103 C333.398761,207.598359 338.943075,211.800137 341.237821,214.473094 C343.532567,217.146051 352.517015,223.830427 353.85694,224.213128 C355.194881,224.593846 355.959134,224.213128 355.959134,224.213128 C356.532821,227.268786 358.825582,228.987966 360.356075,227.076444 C361.884582,225.166906 363.160985,223.320821 363.160985,223.320821 C363.160985,223.320821 363.415075,221.920889 358.825582,220.774769 M354.621194,222.30359 C354.621194,222.30359 358.444448,224.593846 359.208701,222.30359 C359.972955,220.01135 357.870761,219.438291 351.752761,214.473094 C345.634761,209.507897 335.88606,200.723624 331.296567,196.521846 C326.70906,192.320068 307.017119,173.795761 299.944299,165.203829 C292.869493,156.609915 281.780866,144.196923 277.767045,139.612444 C273.751239,135.029949 266.281403,125.347419 266.281403,125.347419 M364.939612,123.36253 C359.399269,131.974291 350.79794,141.141265 345.634761,147.060239 C340.473567,152.981197 334.546134,162.33853 329.76806,167.494085 C324.988,172.651624 316.098836,184.108855 316.098836,184.108855 M310.818537,186.982085 C304.341239,191.93935 297.379582,201.615932 293.633746,204.73306 C287.898866,209.507897 284.458731,213.326974 282.545119,215.428855 C280.633493,217.528752 278.340731,220.394051 280.059806,220.774769 C281.780866,221.15747 282.928239,223.830427 287.708299,219.057573 C292.486373,214.282735 298.223239,207.788718 303.958119,202.823521 C309.693,197.858325 315.467582,191.495179 315.467582,191.495179 M381.886194,116.749538 C374.694269,126.436034 364.369896,138.466325 355.385448,148.206359 C346.399015,157.946393 340.856687,164.057709 337.031448,168.449846 C333.208194,172.841983 329.38494,177.043761 326.135373,180.862838 C322.883821,184.681915 319.826806,186.982085 319.826806,186.982085 M279.454358,218.292171 C276.810239,220.201709 275.281731,224.403487 276.810239,225.166906 C278.340731,225.932308 281.590299,226.632274 282.737672,223.320821 M297.46097,130.255111 C303.958119,138.085607 316.384687,151.644718 320.781627,155.844513 C325.178567,160.046291 331.377955,165.653949 331.377955,165.653949 M335.943627,169.695111 C341.047254,174.751521 354.238075,184.872274 355.385448,185.637675 M356.723388,184.108855 C357.680194,183.345436 357.870761,182.772376 355.385448,179.716718 C352.900134,176.66106 340.94006,166.332103 340.519224,165.653949 M334.738687,159.473231 C334.738687,159.473231 323.26694,147.060239 317.722627,141.141265 C312.178313,135.220308 308.928746,130.255111 308.928746,130.255111 M317.722627,138.658667 C317.722627,138.658667 323.076373,132.737709 324.031194,130.255111 M335.943627,128.385231 C331.296567,134.074188 320.59106,145.150701 319.826806,145.533402 M312.819493,143.241162 C312.819493,143.241162 300.865373,159.120274 298.796925,161.002051 M303.001313,164.057709 L316.098836,149.735179 M289.810493,169.695111 C285.413552,173.605402 281.973418,178.380239 280.442925,180.289778 C278.914418,182.199316 278.721866,185.828034 281.399731,185.637675 C284.075612,185.445333 285.604119,183.535795 288.281985,180.480137 C290.957866,177.424479 295.46597,171.785094 295.46597,171.785094 M278.340731,182.389675 C276.619672,184.108855 275.976507,186.401094 276.202806,188.500991 C276.429104,190.602872 278.340731,191.173949 280.252358,190.220171 C282.163985,189.26441 283.960478,186.014427 283.501925,185.637675 M354.428642,185.637675 C354.428642,187.547214 357.215687,190.220171 359.359567,188.120274 C361.503448,186.018393 359.383388,182.589949 358.253881,182.389675 M279.325328,39.2694701 C280.369478,39.4558632 281.483104,38.6408889 281.64191,37.6633162 C281.802701,36.6877265 280.97294,35.9243077 279.952612,35.7398974 C277.904015,35.3730598 276.780463,33.3148034 277.175493,31.3775043 M298.630179,37.8735043 C298.475343,40.3422222 296.093254,42.2616752 293.447149,42.0019145 C290.801045,41.7461197 288.990657,39.4756923 289.304299,37.0248205 C289.935552,36.3704615 290.140015,37.2845812 291.071015,37.3916581 C293.131522,37.625641 294.624299,35.9362051 294.80097,33.9691624 M280.643418,31.8791795 C283.35503,32.3511111 283.380836,32.184547 286.094433,32.5950085 C288.810015,32.9796923 288.784209,33.1819487 291.507731,33.5051624 M286.300881,32.9539145 C285.790716,36.4993504 285.544567,36.4636581 285.032418,40.009094 M339.109821,34.1238291 C339.485,36.3308034 339.288478,36.3645128 339.661672,38.5714872 M339.159448,34.1158974 C338.994687,33.1403077 339.544552,32.3491282 340.535104,32.1726496 C341.523672,31.994188 342.430851,32.5236239 342.619433,33.4952479 L342.577746,33.5051624 C342.746478,34.3835897 342.996597,34.336 343.167313,35.2144274 C343.351925,36.1860513 344.183672,37.0585299 345.205985,36.8523077 M307.699985,37.3718291 C307.670209,39.1623932 307.70594,39.1643761 307.680134,40.9549402 M309.68903,39.2952479 C307.815119,39.2793846 307.81909,39.0949744 305.949149,39.0513504 M319.159821,41.4823932 C320.732,41.4070427 321.732478,40.3204103 321.633224,38.8411624 C321.490299,36.6084103 321.579627,36.6024615 321.434716,34.3716923 L321.53397,34.2547009 C322.895731,34.1615043 322.895731,34.1634872 324.257493,34.0564103 C326.250507,33.8997607 328.388433,35.3948718 328.606791,37.3599316 C328.823164,39.3269744 326.921463,40.8756239 324.829194,41.042188 M335.651821,36.5628034 C333.809672,36.824547 333.785851,36.6540171 331.943701,36.8899829 M331.532791,33.6082735 C333.341194,33.3782564 333.321343,33.2335043 335.125776,32.9757265 C337.108866,32.6862222 338.790224,33.9870085 339.125701,35.9362051 M336.146104,39.8980513 C334.268224,40.1657436 334.29403,40.3580855 332.410194,40.5960342 M321.772179,37.8834188 C320.843164,37.9409231 320.849119,38.0202393 319.920104,38.0717949 C318.377701,38.1550769 317.13306,36.9673162 317.079463,35.4841026 M313.228418,37.3777778 C313.250254,38.7202051 313.42891,38.7182222 313.452731,40.0606496 C313.468612,41.0501197 314.320209,41.6628376 315.370313,41.633094 M310.633925,34.5104957 C309.82997,34.0524444 308.89103,33.7054359 307.900478,33.6895726 C306.909925,33.6737094 306.135746,34.3082393 305.31591,34.7405128 C304.470269,35.1846838 303.517433,35.496 302.997343,36.2891624 C302.493134,37.056547 301.877761,37.9865299 301.828134,38.9641026 C301.778507,39.9436581 302.133836,41.0164103 302.584448,41.8274188 C303.048955,42.666188 303.946209,43.3383932 304.807731,43.8380855 C305.643448,44.3238974 306.691567,44.2386325 307.743657,44.2564786 C308.795746,44.2723419 309.802179,44.3318291 310.649806,43.8737778 M349.997955,31.9247863 C350.228224,32.8864957 349.461985,33.9116581 348.455552,34.1357265 C347.449119,34.3597949 346.377179,33.7490598 346.172716,32.7814017 C345.968254,31.8137436 346.65906,30.7350427 347.639687,30.5149402 C348.620313,30.2968205 349.765701,30.9630769 349.997955,31.9247863 L349.997955,31.9247863 Z M14.3218358,93.1410598 C12.7913433,99.8036239 22.8735373,102.076034 36.5447463,103.811077 C50.2179403,105.54612 83.7676866,107.800684 103.951925,106.283761 C124.134179,104.766838 140.358194,103.672274 139.869866,92.3459145 M29.7101343,133.394051 C38.825597,138.262085 44.8761045,138.232342 52.2546269,133.364308 M99.4815373,81.2158632 C104.720149,81.6025299 109.613358,82.3084444 115.560642,82.9350427 C133.356836,84.806906 140.947761,86.5042735 142.24997,95.4650256 C143.552179,104.425778 142.746239,119.523624 141.011284,138.244239 C139.274343,156.966838 125.599164,176.667009 117.351179,183.781675 C109.105179,190.896342 110.730955,195.669197 112.902627,205.405265 C115.072313,215.13935 114.893657,211.982564 114.893657,218.510291 M49.6124925,80.7835897 C18.4627015,82.6376068 15.1297612,89.7245128 13.0533731,92.9487179 C10.8836866,96.3176752 10.6157015,106.105299 14.5223284,119.767521 C18.4269701,133.431726 14.5898209,140.893402 9.81571642,147.260513 C5.03962687,153.623658 0.65658209,161.107145 0.65658209,163.978393 C0.65658209,166.847658 5.18056716,168.687795 10.8221493,170.167043 C16.4657164,171.646291 14.7327463,181.225709 15.6002239,190.585026 C16.4677015,199.946325 29.7418955,200.420239 37.9878955,200.047453 C46.2358806,199.672684 46.0294328,208.641368 45.5947015,223.243487 M52.0243582,84.5392137 C48.8363284,84.6899145 45.8190149,85.0745983 42.9942537,85.334359 C28.9637463,86.6331624 19.7688806,89.7106325 19.7688806,93.5535043 C19.7688806,97.3943932 34.754209,97.2813675 43.8696716,97.8702906 C52.9831493,98.4611966 75.7162239,101.455385 98.0701493,100.388581 C120.42209,99.3197949 135.901701,97.7314872 130.875493,91.4417094 C128.487448,88.4534701 118.188881,86.9107692 100.392687,85.8419829 C99.0408507,85.7606838 97.6671791,85.461265 96.253806,85.3878974 M60.0361194,99.0521026 C58.9860149,90.3193846 45.0031493,80.0717265 44.2111045,62.344547 C43.4170746,44.6173675 56.1830896,30.3047521 77.6119701,30.3384615 C92.8275672,30.3602735 108.394522,40.9331282 107.52506,62.2672137 C106.832269,79.3063248 92.2578507,82.8557265 91.7476866,100.596786 M68.2900597,99.2940171 C63.5219104,82.5523419 61.1120299,75.8025299 60.9810149,65.2851966 C60.8480149,54.7658803 71.1604776,53.4948376 71.4959552,65.2752821 C71.6845373,71.92 67.5119104,71.7752479 67.0434328,65.4398632 C66.2136716,54.2404103 82.8108806,54.1729915 81.9950149,65.5667692 C81.5682239,71.5392821 76.5320896,73.3417436 76.5876716,65.719453 C76.677,53.6475214 88.9904179,55.9913162 86.0624328,67.2522393 C83.1344478,78.5111795 82.3285075,82.169641 79.9920746,97.3368889 M35.1194627,58.7257436 C27.679403,59.9928205 27.280403,57.6549744 19.8383582,58.9220513 M39.5025075,36.9177436 C33.3646567,33.7629402 34.3055821,31.9327179 28.1677313,28.7779145 M52.9672687,19.0934017 C49.519194,12.7461197 50.6050299,12.1591795 47.1569552,5.81189744 M79.3548657,16.0238632 C79.8015075,8.00697436 80.5697313,8.17750427 81.0163731,0.160615385 M103.012985,24.5384615 C107.951851,18.4489573 108.265493,18.7027692 113.202373,12.613265 M114.893657,42.0217436 C122.540164,40.0011624 122.448851,39.6601026 130.095358,37.6415043 M115.848478,61.7774359 C123.034448,63.2408205 122.976881,63.5164444 130.162851,64.981812 M186.296791,119.551385 L186.771224,115.448752 C187.019358,113.281436 187.442179,109.74988 187.708179,107.602393 C187.974179,105.452923 189.770672,103.680205 191.698179,103.664342 C193.625687,103.646496 195.233597,105.230838 195.269328,107.184 C195.30506,109.139145 195.410269,112.359385 195.503567,114.342291 C195.598851,116.323214 195.636567,118.910906 195.588925,120.090735 C195.541284,121.270564 197.290134,122.248137 199.473716,122.262017 L200.571463,122.267966 C202.75306,122.281846 206.320239,122.446427 208.495881,122.630838 L208.678507,122.646701 C210.854149,122.833094 212.650642,124.322256 212.670493,125.958154 C212.690343,127.592068 211.489373,129.124855 209.998582,129.362803 C208.507791,129.600752 206.068134,130.04294 204.575358,130.346325 C203.084567,130.649709 200.573448,130.925333 198.997299,130.961026 C197.421149,130.996718 196.095119,132.31535 196.053433,133.889778 C196.009761,135.464205 195.819194,137.988444 195.630612,139.499419 C195.44203,141.010393 195.04303,143.435487 194.745269,144.888957 C194.447507,146.34441 192.432657,147.288274 190.27091,146.988855 L189.86397,146.93135 C187.700239,146.631932 185.919627,144.666872 185.903746,142.563009 C185.889851,140.461128 185.822358,137.074325 185.754866,135.039863 C185.685388,133.005402 184.087403,130.919385 182.203567,130.403829 C180.319731,129.888274 177.157507,129.152615 175.176403,128.765949 C173.195299,128.381265 171.601284,126.281368 171.63106,124.100171 L171.640985,123.429949 C171.672746,121.248752 173.270731,119.767521 175.194269,120.136342 C177.119791,120.507145 180.278045,120.998906 182.213493,121.228923 C184.14894,121.45894 185.73303,121.645333 185.73303,121.645333" sketch:type="MSShapeGroup"></path>
            </g>
        </g>
    </g>
</svg>