<?xml version="1.0" encoding="UTF-8" standalone="no"?>
<svg width="26px" height="24px" viewBox="0 0 26 24" version="1.1" xmlns="http://www.w3.org/2000/svg" xmlns:xlink="http://www.w3.org/1999/xlink" xmlns:sketch="http://www.bohemiancoding.com/sketch/ns">
    <!-- Generator: Sketch 3.1.1 (8761) - http://www.bohemiancoding.com/sketch -->
    <title>contact_twitter</title>
    <desc>Created with Sketch.</desc>
    <defs></defs>
    <g id="Page-1" stroke="none" stroke-width="1" fill="none" fill-rule="evenodd" sketch:type="MSPage">
        <g id="website-md" sketch:type="MSArtboardGroup" transform="translate(-675.000000, -718.000000)" stroke="#FFFFFF" stroke-width="2" stroke-linecap="round" stroke-linejoin="round">
            <g id="Email" sketch:type="MSLayerGroup" transform="translate(640.000000, 692.000000)">
                <path d="M45.8030115,29.274186 C44.6198625,30.7231163 44.1873519,32.6857209 44.5774796,34.8166512 C43.4663306,34.5490698 42.4256498,34.128 41.9895647,33.9228372 C41.6882881,33.7790698 41.3645434,33.7089767 41.0423306,33.7089767 C40.5551817,33.7089767 40.0716072,33.8701395 39.6743306,34.1837674 C39.014586,34.7046047 38.7066711,35.5549302 38.8792668,36.3786512 C38.8894796,36.4262326 38.8996923,36.4743256 38.9099051,36.521907 C38.6821604,36.4456744 38.4457349,36.407814 38.2108413,36.407814 C37.7231817,36.407814 37.2401179,36.5694884 36.8428413,36.8831163 C36.182586,37.4034419 35.8746711,38.2537674 36.0472668,39.0774884 C36.6411391,41.9139535 38.0775647,44.2751163 40.2002881,45.906186 C42.1151817,47.3766047 44.5417349,48.1870233 47.0346711,48.1870233 C50.2879477,48.1870233 53.3701604,46.8368372 55.4918625,44.4828372 C57.1192668,42.6767907 58.9483732,39.4402326 58.4213945,34.2794419 C58.388203,33.9571163 58.340203,33.6404186 58.2773945,33.3308837 C58.646586,32.8366512 58.9228413,32.5240465 58.9248838,32.5214884 C59.4855647,31.8947442 59.6433519,31.004 59.3318625,30.2227442 C59.0208838,29.4414884 58.2942455,28.9042791 57.45782,28.8362326 C57.1024157,28.8075814 56.7449689,28.7927442 56.3951817,28.7927442 C56.1643732,28.7927442 55.934586,28.7988837 55.7053094,28.8116744 C54.3587562,27.6487442 52.639437,27 50.83382,27 C48.8167987,27 46.9830966,27.8293488 45.8030115,29.274186 Z" id="contact_twitter" sketch:type="MSShapeGroup"></path>
            </g>
        </g>
    </g>
</svg>