<?xml version="1.0" encoding="UTF-8" standalone="no"?>
<svg width="26px" height="26px" viewBox="0 0 26 26" version="1.1" xmlns="http://www.w3.org/2000/svg" xmlns:xlink="http://www.w3.org/1999/xlink" xmlns:sketch="http://www.bohemiancoding.com/sketch/ns">
    <!-- Generator: Sketch 3.1.1 (8761) - http://www.bohemiancoding.com/sketch -->
    <title>Imported Layers</title>
    <desc>Created with Sketch.</desc>
    <defs></defs>
    <g id="Page-1" stroke="none" stroke-width="1" fill="none" fill-rule="evenodd" sketch:type="MSPage">
        <g id="website-md" sketch:type="MSArtboardGroup" transform="translate(-963.000000, -642.000000)" stroke="#FFFFFF" stroke-width="2" stroke-linecap="round" stroke-linejoin="round">
            <g id="Call" sketch:type="MSLayerGroup" transform="translate(640.000000, 618.000000)">
                <path d="M333.085532,29.131125 L330.632032,26.677625 C329.729032,25.774125 328.264032,25.774125 327.360532,26.677625 L326.015032,28.023125 C324.848032,29.190625 324.667032,31.011625 325.577532,32.388625 C329.486532,38.298625 334.702032,43.513125 340.611532,47.422625 C341.986032,48.331125 343.812532,48.150125 344.976532,46.984625 L346.322532,45.639125 C347.226032,44.736125 347.226032,43.271625 346.322532,42.368125 L343.869032,39.914625 C342.966532,39.011625 341.501532,39.011625 340.598032,39.914625 L339.780532,40.732625 C337.090532,38.528125 334.471532,35.909625 332.268032,33.219125 L333.085532,32.401625 C333.988532,31.498625 333.988532,30.034125 333.085532,29.131125 Z" id="Imported-Layers" sketch:type="MSShapeGroup"></path>
            </g>
        </g>
    </g>
</svg>